<?xml version="1.0" encoding="UTF-8" standalone="no"?>
<svg
   xmlns:dc="http://purl.org/dc/elements/1.1/"
   xmlns:cc="http://creativecommons.org/ns#"
   xmlns:rdf="http://www.w3.org/1999/02/22-rdf-syntax-ns#"
   xmlns:svg="http://www.w3.org/2000/svg"
   xmlns="http://www.w3.org/2000/svg"
   xmlns:sodipodi="http://sodipodi.sourceforge.net/DTD/sodipodi-0.dtd"
   xmlns:inkscape="http://www.inkscape.org/namespaces/inkscape"
   enable-background="new 0 0 512 512"
   version="1.1"
   viewBox="0 0 512 512"
   xml:space="preserve"
   id="svg14"
   sodipodi:docname="basket.svg"
   inkscape:version="1.0.2 (e86c870879, 2021-01-15, custom)"><metadata
     id="metadata20"><rdf:RDF><cc:Work
         rdf:about=""><dc:format>image/svg+xml</dc:format><dc:type
           rdf:resource="http://purl.org/dc/dcmitype/StillImage" /></cc:Work></rdf:RDF></metadata><defs
     id="defs18" /><sodipodi:namedview
     pagecolor="#ffffff"
     bordercolor="#666666"
     borderopacity="1"
     objecttolerance="10"
     gridtolerance="10"
     guidetolerance="10"
     inkscape:pageopacity="0"
     inkscape:pageshadow="2"
     inkscape:window-width="1192"
     inkscape:window-height="910"
     id="namedview16"
     showgrid="false"
     inkscape:zoom="1.4355469"
     inkscape:cx="256"
     inkscape:cy="311.72789"
     inkscape:window-x="0"
     inkscape:window-y="0"
     inkscape:window-maximized="0"
     inkscape:current-layer="svg14" /><g
     id="Layer_1" /><g
     id="Layer_2"><g
       id="g11"><path
         d="M423.9,232.9c0-12.8-10.4-23.2-23.2-23.2h-20.1c-0.5-1.1-1-2.2-1.7-3.2l-45.8-71.3c-3.3-5.1-8.4-8.7-14.3-10    c-6-1.3-12-0.2-17.2,3.1c-10.6,6.8-13.6,20.9-6.8,31.5l32,49.8H185.3l32-49.8c2.4-3.7,3.6-7.9,3.6-12.3c0-7.8-3.9-15-10.5-19.2    c-5.1-3.3-11.2-4.4-17.2-3.1c-5.9,1.3-11,4.8-14.3,10l-45.8,71.3c-0.7,1-1.2,2.1-1.7,3.2h-20.1c-12.8,0-23.2,10.4-23.2,23.2v1.5    c0,12.8,10.4,23.2,23.2,23.2h2.2l38.1,124.3c1,3.2,3.9,5.3,7.2,5.3h194.2c3.3,0,6.2-2.2,7.2-5.3l38.1-124.3h2.2    c12.8,0,23.2-10.4,23.2-23.2V232.9z M307.3,151.8c-2.3-3.6-1.3-8.4,2.3-10.8c1.8-1.1,3.8-1.5,5.9-1.1c2,0.4,3.8,1.6,4.9,3.4    l42.6,66.3h-18.5L307.3,151.8z M191.6,143.3c1.1-1.8,2.9-3,4.9-3.4c2-0.4,4.1-0.1,5.9,1.1c2.2,1.4,3.6,3.9,3.6,6.6    c0,1.5-0.4,2.9-1.2,4.2l-37.2,57.9h-18.5L191.6,143.3z M347.6,372.2H164.4l-35.2-114.6h253.5L347.6,372.2z M408.9,234.4    c0,4.5-3.7,8.2-8.2,8.2h-7.7c0,0-0.1,0-0.1,0H119.2c0,0-0.1,0-0.1,0h-7.7c-4.5,0-8.2-3.7-8.2-8.2v-1.5c0-4.5,3.7-8.2,8.2-8.2H137    c0,0,0.1,0,0.1,0h34.4c0,0,0,0,0,0c0,0,0,0,0,0h168.8c0,0,0,0,0,0c0,0,0,0,0,0h34.4c0,0,0,0,0.1,0h25.7c4.5,0,8.2,3.7,8.2,8.2    V234.4z"
         id="path3" /><path
         d="M208.9,342.8c4.1,0,7.5-3.4,7.5-7.5v-40.8c0-4.1-3.4-7.5-7.5-7.5s-7.5,3.4-7.5,7.5v40.8    C201.4,339.5,204.8,342.8,208.9,342.8z"
         id="path5" /><path
         d="M256,342.8c4.1,0,7.5-3.4,7.5-7.5v-40.8c0-4.1-3.4-7.5-7.5-7.5s-7.5,3.4-7.5,7.5v40.8C248.5,339.5,251.9,342.8,256,342.8z    "
         id="path7" /><path
         d="M303.1,342.8c4.1,0,7.5-3.4,7.5-7.5v-40.8c0-4.1-3.4-7.5-7.5-7.5s-7.5,3.4-7.5,7.5v40.8    C295.6,339.5,298.9,342.8,303.1,342.8z"
         id="path9" /></g></g><path
     style="fill:#2c6f0e;stroke:#2c6f0e;stroke-width:0.263281"
     d="m 153.963,385.3932 c -1.91261,-1.74714 -3.78243,-7.41994 -21.25724,-64.49152 -10.5381,-34.41672 -19.16018,-62.66379 -19.16018,-62.77127 0,-0.10748 -1.86244,-0.3643 -4.13876,-0.5707 -8.2869,-0.75143 -15.528267,-5.8546 -19.349638,-13.63618 -1.690671,-3.44277 -1.934809,-4.74386 -1.916691,-10.21469 0.01648,-4.97712 0.342293,-6.97587 1.580665,-9.69689 2.368678,-5.20458 5.827254,-8.95088 10.704804,-11.59533 l 4.41214,-2.39213 13.32147,-0.2263 c 12.89512,-0.21907 13.34364,-0.27481 14.01419,-1.7415 0.381,-0.83336 11.24794,-17.97234 24.14876,-38.08662 15.60088,-24.32407 24.50333,-37.54871 26.58332,-39.48965 8.57684,-8.00347 22.87488,-7.62476 31.33474,0.82997 4.75987,4.75699 6.23439,8.63483 6.22399,16.36852 -0.007,5.41082 -0.28035,7.12752 -1.49734,9.41326 -0.81864,1.53757 -8.45361,13.60614 -16.96659,26.81905 -8.51298,13.21291 -15.63108,24.41531 -15.818,24.89422 -0.27052,0.69309 13.97473,0.87075 69.81736,0.87075 60.59285,0 70.10504,-0.13598 69.77446,-0.99746 -0.21052,-0.54861 -7.50345,-12.06861 -16.20651,-25.6 -8.70306,-13.5314 -16.43345,-26.16989 -17.17864,-28.08553 -1.84394,-4.74019 -1.4399,-12.62535 0.89397,-17.44646 6.54734,-13.52502 24.98967,-17.16412 35.81088,-7.06632 2.07999,1.94094 10.98244,15.16558 26.58332,39.48965 12.90082,20.11428 23.76776,37.25326 24.14876,38.08662 0.67036,1.46628 1.12276,1.52274 14.01419,1.74921 12.50217,0.21962 13.53569,0.33962 16.80447,1.95118 6.43157,3.17085 11.30927,9.33849 12.86087,16.26203 0.97202,4.33738 -0.18512,12.7893 -2.33066,17.02331 -2.08015,4.10497 -7.11547,8.86241 -11.37374,10.74604 -1.74793,0.77319 -5.01627,1.57249 -7.26297,1.77621 l -4.08491,0.37041 -2.74732,8.78484 c -1.51102,4.83167 -9.98398,32.45178 -18.82881,61.37804 -8.84481,28.92626 -16.43884,53.49231 -16.87562,54.59123 -0.43676,1.09892 -1.75951,2.58673 -2.93943,3.30624 -2.07234,1.26371 -5.52695,1.30829 -101.57377,1.31081 l -99.42847,0.003 z m 194.5713,-16.71837 c 2.09146,-7.02178 33.40551,-109.23853 33.71761,-110.06259 0.26309,-0.69461 -25.26954,-0.87074 -126.22432,-0.87074 -120.20275,0 -126.53576,0.0612 -126.18819,1.21904 1.0651,3.54811 33.33607,108.843 33.94568,110.75919 l 0.72024,2.26394 h 91.52171 91.52172 z m 57.25223,-128.3483 c 2.61006,-2.42877 3.17926,-4.317 2.46073,-8.1631 -0.43613,-2.33449 -1.24897,-3.86537 -2.7776,-5.23119 l -2.16103,-1.93088 H 255.97878 108.64893 l -2.56183,2.34774 c -2.3138,2.12044 -2.56183,2.69396 -2.56183,5.92383 0,3.90967 1.54199,6.73259 4.51467,8.26504 1.3191,0.68001 32.88509,0.82781 148.77473,0.6966 l 147.10037,-0.16654 z M 183.20544,185.23144 c 23.08685,-35.96846 22.29351,-34.61984 22.27567,-37.86696 -0.0326,-5.93695 -6.27091,-9.31669 -11.30632,-6.12544 -1.20384,0.76295 -9.82596,13.58812 -23.16191,34.45274 -11.68429,18.28055 -21.24417,33.40545 -21.24417,33.61088 0,0.20544 3.99673,0.36767 8.88163,0.3605 l 8.88163,-0.013 z m 178.80717,23.48644 c -0.20226,-0.52707 -9.79816,-15.65197 -21.32422,-33.61089 -13.00574,-20.2644 -21.68196,-33.11368 -22.86869,-33.86795 -5.22163,-3.31881 -11.3163,0.29319 -11.3163,6.70658 0,2.14608 8.51168,15.93995 34.5454,55.98363 l 3.73628,5.74694 h 8.79763 c 7.18065,0 8.73005,-0.17613 8.4299,-0.95831 z"
     id="path847" /><path
     style="fill:#2c6f0e;stroke:#2c6f0e;stroke-width:0.263281"
     d="m 297.98106,340.69468 -2.27494,-2.03185 -0.20243,-22.48486 c -0.14463,-16.06449 0.0315,-23.04955 0.61674,-24.4625 1.22019,-2.9458 3.87236,-4.71683 7.06358,-4.71683 2.21243,0 3.23345,0.47134 5.13055,2.36843 l 2.36843,2.36844 v 23.12708 23.12707 l -2.36843,2.36844 c -3.18798,3.18798 -7.00188,3.3122 -10.3335,0.33658 z"
     id="path849" /><path
     style="fill:#2c6f0e;stroke:#2c6f0e;stroke-width:0.263281"
     d="m 250.78686,340.75525 c -2.6888,-2.6888 -2.95324,-5.55505 -2.67809,-29.02736 0.20221,-17.24977 0.37071,-19.71382 1.45746,-21.31304 3.05413,-4.49435 9.81341,-4.49435 12.86754,0 1.08675,1.59922 1.25525,4.06327 1.45746,21.31304 0.27892,23.79383 0.0278,26.39175 -2.80689,29.03977 -2.97551,2.77953 -7.511,2.77407 -10.29748,-0.0124 z"
     id="path851" /><path
     style="fill:#2c6f0e;stroke:#2c6f0e;stroke-width:0.263281"
     d="m 203.68544,340.3581 -2.36843,-2.36844 v -23.12707 -23.12708 l 2.36843,-2.36844 c 1.8971,-1.89709 2.91812,-2.36843 5.13055,-2.36843 3.19122,0 5.84339,1.77103 7.06358,4.71683 0.58526,1.41295 0.76137,8.39801 0.61674,24.4625 l -0.20243,22.48486 -2.27494,2.03185 c -3.33162,2.97562 -7.14552,2.8514 -10.3335,-0.33658 z"
     id="path853" /></svg>
