<?xml version="1.0" encoding="UTF-8" standalone="no"?>
<svg
   xmlns:dc="http://purl.org/dc/elements/1.1/"
   xmlns:cc="http://creativecommons.org/ns#"
   xmlns:rdf="http://www.w3.org/1999/02/22-rdf-syntax-ns#"
   xmlns:svg="http://www.w3.org/2000/svg"
   xmlns="http://www.w3.org/2000/svg"
   xmlns:sodipodi="http://sodipodi.sourceforge.net/DTD/sodipodi-0.dtd"
   xmlns:inkscape="http://www.inkscape.org/namespaces/inkscape"
   viewBox="0 0 32 32"
   version="1.1"
   id="svg17"
   sodipodi:docname="burger_menu_exit_icon.svg"
   inkscape:version="1.0.2 (e86c870879, 2021-01-15, custom)">
  <metadata
     id="metadata21">
    <rdf:RDF>
      <cc:Work
         rdf:about="">
        <dc:format>image/svg+xml</dc:format>
        <dc:type
           rdf:resource="http://purl.org/dc/dcmitype/StillImage" />
      </cc:Work>
    </rdf:RDF>
  </metadata>
  <sodipodi:namedview
     pagecolor="#ffffff"
     bordercolor="#666666"
     borderopacity="1"
     objecttolerance="10"
     gridtolerance="10"
     guidetolerance="10"
     inkscape:pageopacity="0"
     inkscape:pageshadow="2"
     inkscape:window-width="1440"
     inkscape:window-height="837"
     id="namedview19"
     showgrid="false"
     inkscape:zoom="22.96875"
     inkscape:cx="16"
     inkscape:cy="17.741497"
     inkscape:window-x="-8"
     inkscape:window-y="-8"
     inkscape:window-maximized="1"
     inkscape:current-layer="svg17" />
  <defs
     id="defs4">
    <style
       id="style2">.cls-1{fill:#101820;}</style>
  </defs>
  <title
     id="title6" />
  <g
     data-name="Layer 5"
     id="Layer_5">
    <path
       class="cls-1"
       d="M16,31A15,15,0,1,1,31,16,15,15,0,0,1,16,31ZM16,3A13,13,0,1,0,29,16,13,13,0,0,0,16,3Z"
       id="path8" />
    <path
       class="cls-1"
       d="M21,17H11a1,1,0,0,1,0-2H21a1,1,0,0,1,0,2Z"
       id="path10" />
    <path
       class="cls-1"
       d="M21,12H11a1,1,0,0,1,0-2H21a1,1,0,0,1,0,2Z"
       id="path12" />
    <path
       class="cls-1"
       d="M21,22H11a1,1,0,0,1,0-2H21a1,1,0,0,1,0,2Z"
       id="path14" />
  </g>
  <path
     style="fill:#2c6f0e;stroke:#2c6f0e;stroke-width:0.0164551"
     d="M 14.444483,30.933554 C 9.2614104,30.341733 4.8641028,27.292875 2.5762557,22.704762 1.5072159,20.560879 1.0071666,18.433875 1.0051133,16.021769 1.0035837,14.22489 1.2446872,12.761492 1.8146025,11.108505 3.6812126,5.6945746 8.376098,1.8794317 14.127891,1.1025192 c 0.822239,-0.11106239 3.004843,-0.11138579 3.765987,-5.581e-4 1.444247,0.2102924 2.614687,0.5240843 3.852138,1.0327481 4.397893,1.807788 7.71412,5.6831964 8.83984,10.3304128 0.300506,1.240549 0.409476,2.181261 0.409476,3.534878 0,1.985425 -0.307921,3.658135 -0.997817,5.420408 -1.111949,2.840365 -2.983191,5.209107 -5.484606,6.942776 -1.936457,1.34211 -4.113943,2.179879 -6.575494,2.529864 -0.679357,0.09659 -2.78763,0.12104 -3.492932,0.04051 z m 3.134305,-2.049389 c 3.3939,-0.418554 6.460444,-2.139236 8.607415,-4.829743 0.49098,-0.615279 1.044828,-1.50309 1.439488,-2.307483 0.561807,-1.145068 0.866855,-2.031757 1.100896,-3.2 0.19827,-0.98969 0.225674,-1.307193 0.223581,-2.590476 -0.0022,-1.370316 -0.06315,-1.912295 -0.342532,-3.047619 C 27.77599,9.5292817 25.666391,6.6700029 22.667027,4.8571419 19.472666,2.9264213 15.505628,2.4911358 11.929252,3.6789332 7.6632903,5.0957579 4.4737493,8.5445925 3.393274,12.908844 c -0.2797394,1.129922 -0.3412035,1.675339 -0.3434417,3.047619 -0.00209,1.283283 0.02531,1.600786 0.2235807,2.590476 0.2266873,1.131535 0.537146,2.047587 1.057171,3.119331 1.8591272,3.831561 5.4117638,6.472181 9.625313,7.154346 1.120371,0.181386 2.474758,0.205143 3.622891,0.06355 z"
     id="path846" />
  <path
     style="fill:#2c6f0e;stroke:#2c6f0e;stroke-width:0.0164551"
     d="M 10.677463,11.954209 C 9.9674688,11.700838 9.7628794,10.806533 10.296224,10.287733 10.375087,10.21102 10.510291,10.11306 10.596677,10.070046 10.745192,9.9960937 11.039302,9.9918367 16,9.9918367 h 5.246259 l 0.190532,0.1016493 c 0.808763,0.431475 0.739716,1.555972 -0.114254,1.860723 -0.241532,0.0862 -10.403542,0.0862 -10.645074,0 z"
     id="path848" />
  <path
     style="fill:#2c6f0e;stroke:#2c6f0e;stroke-width:0.0164551"
     d="M 10.698091,16.959141 C 10.283291,16.829614 9.9918367,16.433799 9.9918367,16 c 0,-0.277776 0.1673933,-0.632038 0.3726063,-0.788561 0.317622,-0.242263 0.132765,-0.234568 5.635557,-0.234568 5.502792,0 5.317935,-0.0077 5.635557,0.234568 0.205213,0.156523 0.372606,0.510785 0.372606,0.788561 0,0.277776 -0.167393,0.632038 -0.372606,0.788561 -0.317971,0.242528 -0.129649,0.234812 -5.653361,0.231656 -4.124845,-0.0024 -5.133393,-0.01401 -5.284105,-0.06108 z"
     id="path850" />
  <path
     style="fill:#2c6f0e;stroke:#2c6f0e;stroke-width:0.0164551"
     d="m 10.797279,21.989659 c -1.0001646,-0.24684 -1.0835671,-1.59994 -0.119816,-1.943868 0.241532,-0.0862 10.403542,-0.0862 10.645074,0 0.68928,0.245979 0.908877,1.117424 0.414032,1.643036 -0.06009,0.06382 -0.194985,0.16178 -0.299778,0.217687 l -0.190532,0.101649 -5.159184,0.0069 c -2.837551,0.0038 -5.217959,-0.0076 -5.289796,-0.02537 z"
     id="path852" />
</svg>
