<?xml version="1.0" encoding="UTF-8" standalone="no"?>
<svg
   xmlns:dc="http://purl.org/dc/elements/1.1/"
   xmlns:cc="http://creativecommons.org/ns#"
   xmlns:rdf="http://www.w3.org/1999/02/22-rdf-syntax-ns#"
   xmlns:svg="http://www.w3.org/2000/svg"
   xmlns="http://www.w3.org/2000/svg"
   xmlns:sodipodi="http://sodipodi.sourceforge.net/DTD/sodipodi-0.dtd"
   xmlns:inkscape="http://www.inkscape.org/namespaces/inkscape"
   viewBox="0 0 512 512"
   version="1.1"
   id="svg11"
   sodipodi:docname="burger_menu_icon.svg"
   inkscape:version="1.0.2 (e86c870879, 2021-01-15, custom)">
  <metadata
     id="metadata17">
    <rdf:RDF>
      <cc:Work
         rdf:about="">
        <dc:format>image/svg+xml</dc:format>
        <dc:type
           rdf:resource="http://purl.org/dc/dcmitype/StillImage" />
      </cc:Work>
    </rdf:RDF>
  </metadata>
  <defs
     id="defs15" />
  <sodipodi:namedview
     pagecolor="#ffffff"
     bordercolor="#666666"
     borderopacity="1"
     objecttolerance="10"
     gridtolerance="10"
     guidetolerance="10"
     inkscape:pageopacity="0"
     inkscape:pageshadow="2"
     inkscape:window-width="1440"
     inkscape:window-height="837"
     id="namedview13"
     showgrid="false"
     inkscape:zoom="1.4355469"
     inkscape:cx="256"
     inkscape:cy="256"
     inkscape:window-x="-8"
     inkscape:window-y="-8"
     inkscape:window-maximized="1"
     inkscape:current-layer="svg11" />
  <title
     id="title2" />
  <g
     data-name="1"
     id="_1">
    <path
       d="M257,461.46c-114,0-206.73-92.74-206.73-206.73S143,48,257,48s206.73,92.74,206.73,206.73S371,461.46,257,461.46ZM257,78C159.55,78,80.27,157.28,80.27,254.73S159.55,431.46,257,431.46s176.73-79.28,176.73-176.73S354.45,78,257,78Z"
       id="path4" />
    <path
       d="M342.92,358a15,15,0,0,1-10.61-4.39L160.47,181.76a15,15,0,1,1,21.21-21.21L353.53,332.4A15,15,0,0,1,342.92,358Z"
       id="path6" />
    <path
       d="M171.07,358a15,15,0,0,1-10.6-25.6L332.31,160.55a15,15,0,0,1,21.22,21.21L181.68,353.61A15,15,0,0,1,171.07,358Z"
       id="path8" />
  </g>
  <path
     style="fill:#2c6f0e;stroke:#2c6f0e;stroke-width:0.263281"
     d="M 241.75421,461.05105 C 192.37138,457.51738 145.69624,435.87704 110.26142,400.08609 76.440263,365.92502 56.72644,324.48634 51.159445,275.85306 c -1.062241,-9.27974 -1.085817,-33.04202 -0.04181,-42.14422 2.987832,-26.04957 9.427963,-48.04281 20.693578,-70.6692 15.359945,-30.84963 36.569937,-55.90681 64.373817,-76.050294 49.44891,-35.824967 112.17321,-47.73031 172.05987,-32.657707 27.67563,6.965555 54.6456,20.449215 78.01905,39.00569 9.36567,7.435521 24.60028,22.667961 32.05499,32.050431 24.66822,31.0473 39.70951,67.27072 44.25574,106.57959 1.60308,13.86108 1.08873,40.89054 -1.02733,53.98639 -6.29946,38.98608 -22.15529,73.52518 -47.1341,102.67331 -25.31039,29.53503 -57.91406,51.37442 -94.01379,62.97461 -25.73266,8.26886 -51.64066,11.38176 -78.64525,9.44939 z m 40.71654,-31.58059 c 38.40618,-5.91301 72.17353,-22.96043 99.29533,-50.12916 14.038,-14.06228 24.60834,-28.82487 33.34813,-46.57415 8.66739,-17.60226 13.54276,-33.03816 16.54598,-52.3862 1.95483,-12.59395 2.13359,-37.59768 0.35261,-49.3228 -7.40196,-48.73096 -31.31321,-89.1125 -69.78151,-117.84768 -13.26952,-9.91211 -24.43342,-16.179323 -39.85077,-22.37151 -56.36482,-22.638233 -121.61576,-14.250284 -170.05796,21.8608 -39.28014,29.28126 -63.635573,70.77582 -70.617988,120.31248 -1.298946,9.21536 -1.084512,36.41093 0.361441,45.83981 4.987055,32.51996 16.551829,59.53925 36.582387,85.46904 6.68331,8.65161 22.2616,23.87265 31.46861,30.74694 28.20582,21.05948 54.91661,31.35628 92.64762,35.7149 5.65522,0.65328 32.75678,-0.24254 39.70612,-1.31247 z"
     id="path842" />
  <path
     style="fill:#2c6f0e;stroke:#2c6f0e;stroke-width:0.263281"
     d="m 165.44218,356.94405 c -8.093,-3.49574 -11.67708,-13.0133 -7.84604,-20.83521 0.56295,-1.14938 18.30801,-19.41036 39.43345,-40.57994 l 38.4099,-38.49015 -38.45334,-38.484 c -40.02158,-40.0535 -41.24431,-41.4489 -41.28106,-47.11067 -0.0712,-10.97606 11.26715,-18.55763 21.42749,-14.3278 1.78391,0.74266 14.62372,13.09727 41.25938,39.70023 l 38.66951,38.62205 37.95634,-38.02978 c 40.43214,-40.51038 41.40344,-41.34905 47.90525,-41.36388 7.88923,-0.018 14.75937,6.65217 14.93428,14.49959 0.15919,7.14217 1.21549,5.89743 -40.44929,47.66497 l -38.73977,38.83531 38.43929,38.48714 c 27.90914,27.94388 38.75393,39.2427 39.58786,41.24526 4.07883,9.7947 -3.17326,21.28576 -13.42408,21.27064 -6.90288,-0.0102 -5.48391,1.20537 -47.22516,-40.45476 l -39.01774,-38.94193 -37.9564,37.97478 c -28.73358,28.7475 -38.79364,38.39406 -41.40202,39.70029 -3.97392,1.99007 -8.51931,2.21975 -12.22785,0.61786 z"
     id="path844" />
</svg>
