<?xml version="1.0" encoding="UTF-8" standalone="no"?>
<svg
   xmlns:dc="http://purl.org/dc/elements/1.1/"
   xmlns:cc="http://creativecommons.org/ns#"
   xmlns:rdf="http://www.w3.org/1999/02/22-rdf-syntax-ns#"
   xmlns:svg="http://www.w3.org/2000/svg"
   xmlns="http://www.w3.org/2000/svg"
   xmlns:sodipodi="http://sodipodi.sourceforge.net/DTD/sodipodi-0.dtd"
   xmlns:inkscape="http://www.inkscape.org/namespaces/inkscape"
   version="1.1"
   id="Layer_1"
   x="0px"
   y="0px"
   viewBox="0 0 56.7 56.7"
   enable-background="new 0 0 56.7 56.7"
   xml:space="preserve"
   sodipodi:docname="instagram_icon.svg"
   inkscape:version="1.0.2 (e86c870879, 2021-01-15, custom)"><metadata
   id="metadata15"><rdf:RDF><cc:Work
       rdf:about=""><dc:format>image/svg+xml</dc:format><dc:type
         rdf:resource="http://purl.org/dc/dcmitype/StillImage" /></cc:Work></rdf:RDF></metadata><defs
   id="defs13" /><sodipodi:namedview
   pagecolor="#ffffff"
   bordercolor="#666666"
   borderopacity="1"
   objecttolerance="10"
   gridtolerance="10"
   guidetolerance="10"
   inkscape:pageopacity="0"
   inkscape:pageshadow="2"
   inkscape:window-width="1680"
   inkscape:window-height="987"
   id="namedview11"
   showgrid="false"
   inkscape:zoom="16"
   inkscape:cx="25.750234"
   inkscape:cy="33.331381"
   inkscape:window-x="1432"
   inkscape:window-y="-8"
   inkscape:window-maximized="1"
   inkscape:current-layer="Layer_1" />
<g
   id="g8">
	<path
   d="M28.2,16.7c-7,0-12.8,5.7-12.8,12.8s5.7,12.8,12.8,12.8S41,36.5,41,29.5S35.2,16.7,28.2,16.7z M28.2,37.7   c-4.5,0-8.2-3.7-8.2-8.2s3.7-8.2,8.2-8.2s8.2,3.7,8.2,8.2S32.7,37.7,28.2,37.7z"
   id="path2" />
	<circle
   cx="41.5"
   cy="16.4"
   r="2.9"
   id="circle4" />
	<path
   d="M49,8.9c-2.6-2.7-6.3-4.1-10.5-4.1H17.9c-8.7,0-14.5,5.8-14.5,14.5v20.5c0,4.3,1.4,8,4.2,10.7c2.7,2.6,6.3,3.9,10.4,3.9   h20.4c4.3,0,7.9-1.4,10.5-3.9c2.7-2.6,4.1-6.3,4.1-10.6V19.3C53,15.1,51.6,11.5,49,8.9z M48.6,39.9c0,3.1-1.1,5.6-2.9,7.3   s-4.3,2.6-7.3,2.6H18c-3,0-5.5-0.9-7.3-2.6C8.9,45.4,8,42.9,8,39.8V19.3c0-3,0.9-5.5,2.7-7.3c1.7-1.7,4.3-2.6,7.3-2.6h20.6   c3,0,5.5,0.9,7.3,2.7c1.7,1.8,2.7,4.3,2.7,7.2V39.9L48.6,39.9z"
   id="path6" />
</g>
<path
   style="fill:#2c6f0e;stroke:#004fd2;stroke-width:0.0291564;fill-opacity:1"
   d="M 16.045715,54.2573 C 9.9238412,53.566255 5.3970792,49.703543 3.9309514,43.919703 3.462815,42.072916 3.4819816,42.621121 3.4513282,30.201429 3.4318833,22.323038 3.4494648,18.514367 3.5084829,17.82 3.9466949,12.664296 6.4605808,8.6657254 10.607143,6.5289165 12.098266,5.76051 13.551549,5.2956892 15.39,4.9991585 16.118425,4.8816681 17.338177,4.8656922 27.501429,4.8405266 c 7.736217,-0.019156 11.629963,-0.00136 12.342857,0.056405 2.682656,0.2173803 5.101424,1.0221134 7.128759,2.3717657 0.979802,0.6522804 2.414269,2.036051 3.214376,3.1007727 1.463862,1.947999 2.436355,4.584516 2.691257,7.296245 0.110615,1.176756 0.108712,22.781346 -0.0021,23.920173 -0.430788,4.426987 -2.408798,7.995379 -5.657888,10.207002 -1.989858,1.354476 -4.421802,2.216713 -6.97757,2.473871 -0.997461,0.100363 -23.299739,0.09164 -24.195399,-0.0095 z m 23.193109,-4.460849 c 1.761514,-0.114128 2.983324,-0.420517 4.346891,-1.090054 2.188157,-1.074425 3.777031,-2.95389 4.54061,-5.371042 0.501371,-1.587123 0.473676,-0.783087 0.473676,-13.751069 V 17.82 L 48.421437,17.01 C 47.58483,13.214981 45.420979,10.795384 41.974364,9.8009466 40.460203,9.3640722 40.535461,9.3662393 27.842779,9.3940105 16.212177,9.4194578 16.199198,9.4196603 15.432952,9.5876568 11.436185,10.463933 9.1000345,12.755785 8.2008563,16.682615 l -0.1721199,0.751671 -0.026245,11.648572 c -0.01873,8.313155 -0.00129,11.867874 0.060914,12.414461 0.5576169,4.899951 3.8590956,7.960729 8.9465946,8.294324 1.315133,0.08624 20.90663,0.09047 22.228824,0.0048 z"
   id="path840" /><path
   style="fill:#2c6f0e;fill-opacity:1;stroke:#004fd2;stroke-width:0.0291564"
   d="m 40.714924,19.139793 c -0.498106,-0.162665 -0.961591,-0.462402 -1.325521,-0.85722 -1.302056,-1.412565 -0.812636,-3.663095 0.978061,-4.49747 0.374971,-0.174717 0.545205,-0.205534 1.135394,-0.205534 0.588912,0 0.760731,0.03097 1.132082,0.204019 2.252563,1.049719 2.25547,4.182363 0.0048,5.212736 -0.530313,0.242785 -1.418103,0.308957 -1.924855,0.143469 z"
   id="path842" /><path
   style="fill:#2c6f0e;fill-opacity:1;stroke:#004fd2;stroke-width:0.0291564"
   d="m 26.691429,42.187011 c -3.052452,-0.451723 -5.40621,-1.611137 -7.48906,-3.688958 -1.847554,-1.843092 -2.962239,-3.901025 -3.517044,-6.49317 -0.156555,-0.73145 -0.179565,-1.052067 -0.179258,-2.49774 3.08e-4,-1.448551 0.02329,-1.765528 0.181522,-2.503232 0.728997,-3.398782 2.627408,-6.202866 5.507653,-8.135185 3.166383,-2.124285 7.324553,-2.686308 10.937521,-1.478326 4.34677,1.453325 7.554559,5.0413 8.568883,9.584464 0.250495,1.121972 0.289889,3.353588 0.08086,4.580797 -0.892098,5.237552 -4.826766,9.317601 -10.07965,10.45208 -0.607872,0.131283 -1.090367,0.17158 -2.275715,0.190063 -0.827357,0.0129 -1.608428,0.008 -1.735714,-0.01079 z m 2.404205,-4.508047 c 1.922923,-0.214418 3.482582,-0.973568 4.891784,-2.38103 1.169429,-1.167985 1.782979,-2.238298 2.210733,-3.856528 0.166706,-0.630668 0.195499,-0.907574 0.19711,-1.895691 0.0021,-1.272375 -0.08834,-1.817825 -0.478614,-2.88719 -0.844767,-2.314717 -2.729802,-4.154208 -5.075334,-4.952713 -2.272964,-0.773799 -4.801221,-0.498808 -6.905408,0.751082 -0.826669,0.491042 -2.20353,1.842352 -2.703271,2.653106 -1.993716,3.2345 -1.596469,7.297668 0.978982,10.013323 0.735866,0.775925 1.399546,1.261028 2.396956,1.752002 1.519575,0.748011 2.849622,0.986225 4.487062,0.803639 z"
   id="path844" /><path
   style="fill:#2c6f0e;fill-opacity:1;stroke:#004fd2;stroke-width:0.00257708"
   d="m 48.586095,22.361417 c 0,-4.219534 1.5e-5,-4.224079 0.01364,-4.224079 0.01362,0 0.01364,0.0045 0.01364,4.224079 0,4.219533 -1.5e-5,4.224079 -0.01364,4.224079 -0.01362,0 -0.01364,-0.0045 -0.01364,-4.224079 z"
   id="path848" /><path
   style="fill:#2c6f0e;fill-opacity:1;stroke:#004fd2;stroke-width:0.00147638"
   d="m 48.616305,22.08249 v -2.419922 h 0.935547 0.935547 v 2.419922 2.419922 h -0.935547 -0.935547 z"
   id="path850" /><path
   style="fill:#2c6f0e;fill-opacity:1;stroke:#004fd2;stroke-width:0.00147638"
   d="m 48.620211,22.08249 v -2.416015 h 0.931641 0.93164 v 2.416015 2.416016 h -0.93164 -0.931641 z"
   id="path852" /><path
   style="fill:#2c6f0e;fill-opacity:1;stroke:#2c6f0e;stroke-width:0.00295276;stroke-opacity:1"
   d="m 48.572022,18.413409 c -0.03505,-0.526848 -0.134829,-1.20228 -0.252515,-1.709333 -0.01525,-0.06572 -0.0265,-0.123193 -0.02499,-0.127719 0.0052,-0.01561 0.06748,0.249051 0.197099,0.837668 l 0.09046,0.410773 -0.002,0.339227 c -0.0015,0.246577 -0.0037,0.31469 -0.008,0.249384 z"
   id="path858" /><path
   style="fill:#2c6f0e;fill-opacity:1;stroke:#2c6f0e;stroke-width:0.00147638;stroke-opacity:1"
   d="m 48.608805,18.18707 c -5.51e-4,-0.02256 -0.0027,-0.04364 -0.0047,-0.04684 -0.0065,-0.01033 -0.01136,7.14e-4 -0.01281,0.02926 -7.62e-4,0.01504 -0.0017,-0.0562 -0.0022,-0.158318 L 48.58833,17.82551 48.48705,17.366456 c -0.05571,-0.25248 -0.112105,-0.504675 -0.125334,-0.560432 -0.08191,-0.345224 -0.181127,-0.70195 -0.275544,-0.990667 -0.0117,-0.03579 -0.02128,-0.06611 -0.02128,-0.06738 0,-0.0013 0.0059,-0.0023 0.013,-0.0023 h 0.013 l 0.03958,0.125976 c 0.08738,0.278111 0.147212,0.490127 0.213569,0.756836 0.04942,0.198653 0.06415,0.26303 0.169921,0.742678 l 0.09787,0.44385 -10e-4,0.206541 c -5.76e-4,0.113597 -0.0015,0.188084 -0.002,0.165525 z"
   id="path860" /><path
   style="fill:#2c6f0e;fill-opacity:1;stroke:#2c6f0e;stroke-width:0.00147638;stroke-opacity:1"
   d=""
   id="path862" /><path
   style="fill:#2c6f0e;fill-opacity:1;stroke:#2c6f0e;stroke-width:0.00147638;stroke-opacity:1"
   d=""
   id="path864" /><path
   style="fill:#2c6f0e;fill-opacity:1;stroke:#2c6f0e;stroke-width:0.00147638;stroke-opacity:1"
   d=""
   id="path866" /><path
   style="fill:#2c6f0e;fill-opacity:1;stroke:#2c6f0e;stroke-width:0.00147638;stroke-opacity:1"
   d="m 48.591399,17.978551 -0.0018,-0.160621 -0.111739,-0.501954 c -0.165803,-0.744822 -0.243151,-1.044188 -0.380376,-1.472212 -0.02333,-0.07277 -0.02822,-0.09204 -0.02406,-0.09472 0.01026,-0.0066 0.01658,-0.0011 0.02303,0.02007 0.0036,0.01181 0.02508,0.08124 0.04775,0.154287 0.14847,0.478528 0.210982,0.728771 0.408372,1.634766 l 0.05745,0.263672 -0.002,0.158203 c -0.0018,0.142605 -0.0026,0.158249 -0.0084,0.158668 -0.0058,4.21e-4 -0.0065,-0.01474 -0.0082,-0.160156 z"
   id="path868" /><path
   style="fill:#2c6f0e;fill-opacity:1;stroke:#2c6f0e;stroke-width:0.00147638;stroke-opacity:1"
   d="m 41.236702,19.239621 c -0.157334,-0.009 -0.306433,-0.03004 -0.427734,-0.06033 -0.145413,-0.03631 -0.376434,-0.127454 -0.544922,-0.214983 C 39.970892,18.812015 39.7224,18.63118 39.481881,18.395101 l -0.08112,-0.07962 v -0.01824 -0.01824 l 0.08887,0.08831 c 0.198424,0.197185 0.387997,0.34454 0.624023,0.485054 0.243331,0.144862 0.537081,0.267802 0.749742,0.31378 0.507622,0.109752 1.252817,0.03954 1.729415,-0.162948 0.06765,-0.02874 0.22031,-0.105449 0.293156,-0.147303 0.515838,-0.296376 0.911082,-0.721253 1.158452,-1.245309 0.2771,-0.587037 0.342605,-1.273206 0.182457,-1.911263 -0.02773,-0.110483 -0.07328,-0.253061 -0.110757,-0.346679 l -0.0082,-0.02051 h 0.01356 c 0.01595,0 0.01332,-0.0051 0.04848,0.09343 0.235376,0.65936 0.223417,1.387952 -0.03341,2.035038 -0.180403,0.454541 -0.474171,0.851079 -0.858101,1.158296 -0.253212,0.202618 -0.559916,0.374256 -0.832654,0.465973 -0.242157,0.08143 -0.539356,0.135241 -0.846919,0.153334 -0.06196,0.0036 -0.306531,0.0046 -0.362174,0.0014 z"
   id="path870" /><path
   style="fill:#2c6f0e;fill-opacity:1;stroke:#2c6f0e;stroke-width:0.00147638;stroke-opacity:1"
   d="m 41.35389,19.294405 c -0.139412,-0.0096 -0.198399,-0.0158 -0.296875,-0.03101 -0.461672,-0.07132 -0.898018,-0.253161 -1.277344,-0.532305 -0.110881,-0.0816 -0.207639,-0.164728 -0.311523,-0.267653 l -0.06738,-0.06676 v -0.03778 -0.03778 l 0.0674,0.06704 c 0.339292,0.337436 0.737341,0.589307 1.178691,0.745835 0.160251,0.05683 0.303306,0.0858 0.519531,0.105184 0.08913,0.008 0.410537,0.0067 0.511479,-0.0021 0.22409,-0.01946 0.404758,-0.04865 0.584224,-0.0944 0.185172,-0.04721 0.303946,-0.09075 0.46875,-0.171855 0.643812,-0.316831 1.128962,-0.828865 1.395353,-1.472676 0.177291,-0.428478 0.248467,-0.916267 0.202057,-1.384766 -0.01785,-0.180185 -0.05672,-0.377875 -0.107006,-0.544203 -0.01927,-0.06374 -0.05837,-0.178472 -0.07385,-0.216711 l -0.0084,-0.02068 0.02786,0.0011 0.02786,0.0011 0.01135,0.0293 c 0.07624,0.196711 0.139234,0.446074 0.167063,0.661309 0.01843,0.142537 0.0214,0.19347 0.02158,0.369941 1.99e-4,0.198056 -0.0058,0.283038 -0.03149,0.449219 -0.131509,0.849392 -0.635829,1.598453 -1.374593,2.041665 -0.398904,0.239318 -0.845301,0.377089 -1.320245,0.407466 -0.05582,0.0036 -0.26942,0.0045 -0.31452,0.0014 z"
   id="path872" /><path
   style="fill:#2c6f0e;fill-opacity:1;stroke:#2c6f0e;stroke-width:0.00208791;stroke-opacity:1"
   d=""
   id="path874" /><path
   style="fill:#2c6f0e;fill-opacity:1;stroke:#2c6f0e;stroke-width:0.00208791;stroke-opacity:1"
   d="m 39.382669,18.2928 c -0.0059,-0.0074 -0.03337,-0.03909 -0.06102,-0.07043 -0.02765,-0.03134 -0.07639,-0.09089 -0.108306,-0.132336 -0.55677,-0.722982 -0.717015,-1.66796 -0.431913,-2.547037 0.244701,-0.75451 0.776128,-1.365492 1.504763,-1.730029 0.316622,-0.158406 0.503768,-0.213224 0.803781,-0.235437 0.205635,-0.01523 0.723112,-0.0119 0.899285,0.0058 0.247773,0.02486 0.426332,0.07982 0.708278,0.218013 0.554528,0.27179 0.98943,0.680157 1.280794,1.202648 0.03636,0.0652 0.04226,0.07949 0.04217,0.102199 l -1e-4,0.0264 -0.03624,-0.06905 c -0.272823,-0.519908 -0.709035,-0.943642 -1.256243,-1.220309 -0.306792,-0.155112 -0.472072,-0.207876 -0.740253,-0.236317 -0.109256,-0.01159 -0.690713,-0.01676 -0.850738,-0.0076 -0.305983,0.01758 -0.466452,0.05855 -0.756698,0.193235 -0.619586,0.287503 -1.110006,0.756168 -1.405105,1.342774 -0.06527,0.129747 -0.10207,0.214935 -0.145039,0.335753 -0.07625,0.214398 -0.126811,0.441936 -0.152487,0.686237 -0.0096,0.09096 -0.0096,0.42756 -9.9e-5,0.513757 0.01101,0.09961 0.02794,0.211976 0.04328,0.287262 0.09487,0.465582 0.309245,0.896608 0.626005,1.25868 0.03839,0.04388 0.05,0.06088 0.05,0.0732 0,0.01945 -5.64e-4,0.01956 -0.01411,0.0026 z"
   id="path876" /><path
   style="fill:#2c6f0e;fill-opacity:1;stroke:#2c6f0e;stroke-width:0.00208791;stroke-opacity:1"
   d="m 39.343447,18.332975 c -0.222511,-0.251254 -0.390554,-0.517713 -0.518532,-0.822218 -0.04439,-0.10561 -0.108101,-0.299954 -0.137644,-0.419844 -0.120437,-0.488761 -0.110645,-1.006032 0.02818,-1.488791 0.09967,-0.346596 0.276896,-0.695984 0.495436,-0.976721 0.154116,-0.197977 0.353515,-0.39385 0.553256,-0.54347 0.532247,-0.398692 1.184525,-0.601895 1.847869,-0.575664 0.416678,0.01648 0.789708,0.1115 1.168383,0.297623 0.502397,0.246934 0.917969,0.629215 1.203969,1.107522 l 0.03623,0.06059 -5.9e-5,0.04713 -6e-5,0.04713 -0.02911,-0.05248 c -0.136504,-0.246121 -0.279699,-0.436941 -0.478059,-0.637052 -0.233332,-0.235393 -0.483668,-0.415582 -0.790919,-0.569293 -0.233577,-0.116853 -0.412684,-0.181418 -0.58281,-0.210093 -0.175413,-0.02957 -0.511899,-0.04214 -0.852133,-0.03185 -0.403296,0.0122 -0.548435,0.03966 -0.816427,0.154471 -0.514722,0.220508 -0.934918,0.545542 -1.254824,0.970645 -0.540272,0.717931 -0.714984,1.649894 -0.468316,2.498136 0.113463,0.390177 0.322154,0.763808 0.599118,1.072636 l 0.05028,0.05607 -0.0016,0.03631 -0.0016,0.03631 z"
   id="path878" /><path
   style="fill:#2c6f0e;fill-opacity:1;stroke:#2c6f0e;stroke-width:0.00147638;stroke-opacity:1"
   d="m 44.127306,15.30187 c -0.01416,-0.03643 -0.0636,-0.145973 -0.08608,-0.190727 l -0.01743,-0.0347 7.1e-5,-0.04988 7.1e-5,-0.04988 0.01209,0.02149 c 0.04067,0.0723 0.155741,0.316161 0.155741,0.330057 0,0.0011 -0.01203,0.002 -0.02673,0.002 h -0.02673 z"
   id="path880" /><path
   style="fill:#2c6f0e;fill-opacity:1;stroke:#2c6f0e;stroke-width:0.00147638;stroke-opacity:1"
   d="m 44.094117,15.297963 c -0.0072,-0.01772 -0.02644,-0.06123 -0.0427,-0.09668 -0.0285,-0.06212 -0.02949,-0.06529 -0.02761,-0.08768 l 0.002,-0.02323 0.03193,0.0662 c 0.02695,0.05588 0.0755,0.166456 0.0755,0.171963 0,9.11e-4 -0.0058,0.0017 -0.01296,0.0017 -0.01257,0 -0.01336,-9.78e-4 -0.0261,-0.03223 z"
   id="path882" /><path
   style="fill:#2c6f0e;fill-opacity:1;stroke:#2c6f0e;stroke-width:0.00147638;stroke-opacity:1"
   d="m 40.796313,27.403578 c -0.03698,-0.247494 -0.07909,-0.451304 -0.160413,-0.776368 -0.353376,-1.412504 -0.928088,-2.751742 -1.695937,-3.951997 -0.02228,-0.03483 -0.04051,-0.06427 -0.04051,-0.06543 0,-0.0012 0.01099,-0.0021 0.02441,-0.0021 l 0.02441,7e-6 0.01933,0.03027 c 0.350943,0.549336 0.634182,1.067728 0.891597,1.631829 0.421705,0.924125 0.733425,1.905516 0.920659,2.89852 0.0168,0.08909 0.04927,0.271474 0.04927,0.27674 0,0.0014 -0.0059,0.0025 -0.01313,0.0025 h -0.01313 z"
   id="path884" /><path
   style="fill:#2c6f0e;fill-opacity:1;stroke:#2c6f0e;stroke-width:0.00147638;stroke-opacity:1"
   d="m 40.772634,27.438734 c -0.0011,-0.0048 -0.0083,-0.04922 -0.01598,-0.09863 -0.02511,-0.160989 -0.04804,-0.278919 -0.08812,-0.453125 -0.343557,-1.493269 -0.937788,-2.918411 -1.742427,-4.178857 -0.034,-0.05325 -0.06181,-0.09774 -0.06181,-0.09887 0,-0.0011 0.0064,-0.0015 0.01421,-8.3e-4 0.01386,0.0012 0.01539,0.0031 0.06206,0.07593 0.723302,1.129393 1.286117,2.414132 1.640006,3.743646 0.05833,0.219129 0.129016,0.514987 0.156427,0.654709 0.02108,0.107474 0.06089,0.343197 0.06089,0.360579 0,0.0023 -0.0052,0.0042 -0.01164,0.0042 -0.0089,0 -0.01211,-0.0021 -0.01361,-0.0088 z"
   id="path886" /><path
   style="fill:#2c6f0e;fill-opacity:1;stroke:#2c6f0e;stroke-width:0.00147638;stroke-opacity:1"
   d="m 36.169879,27.376234 c -0.07514,-0.264816 -0.214555,-0.669959 -0.32891,-0.955855 -0.08875,-0.221874 -0.175582,-0.41377 -0.287894,-0.63621 l -0.06769,-0.134057 v -1.521225 -1.521225 l 1.7,2.6e-5 1.7,2.6e-5 0.01144,0.01072 c 0.0098,0.0092 0.01081,0.0095 0.007,0.0022 -0.0024,-0.0047 -0.0044,-0.0096 -0.0044,-0.01092 0,-0.0013 0.01183,-0.0019 0.02629,-0.0012 l 0.02629,0.0012 0.02851,0.04492 c 0.144794,0.22816 0.248029,0.399385 0.365471,0.606168 0.675919,1.190109 1.155193,2.480254 1.418214,3.81766 0.02372,0.120589 0.06491,0.350182 0.06491,0.361774 0,0.0058 -0.0029,0.0074 -0.01335,0.0074 -0.0073,0 -0.01423,-0.0022 -0.01532,-0.0049 -0.0016,-0.0039 -0.002,-0.0039 -0.0023,0 -1.72e-4,0.0027 -0.0054,0.0049 -0.0117,0.0049 -0.0063,0 -0.01228,-0.0022 -0.01336,-0.0049 -0.0016,-0.0039 -0.002,-0.0039 -0.0023,0 -2.46e-4,0.0039 -0.461121,0.0049 -2.290527,0.0049 h -2.290218 z m 4.615053,-0.03882 c -0.0012,-0.0031 -0.0022,-0.0022 -0.0024,0.0024 -1.68e-4,0.0041 7.53e-4,0.0064 0.0021,0.0051 0.0013,-0.0013 0.0014,-0.0047 3.08e-4,-0.0075 z m -0.0039,-0.02344 c -0.0012,-0.0031 -0.0022,-0.0022 -0.0024,0.0024 -1.68e-4,0.0041 7.54e-4,0.0064 0.0021,0.0051 0.0013,-0.0013 0.0014,-0.0047 3.09e-4,-0.0075 z m -0.0078,-0.04687 c -0.0012,-0.0031 -0.0022,-0.0022 -0.0024,0.0024 -1.68e-4,0.0041 7.54e-4,0.0064 0.0021,0.0051 0.0013,-0.0013 0.0014,-0.0047 3.08e-4,-0.0075 z m -0.0039,-0.02344 c -0.0012,-0.0031 -0.0022,-0.0022 -0.0024,0.0024 -1.68e-4,0.0041 7.53e-4,0.0064 0.0021,0.0051 0.0013,-0.0013 0.0014,-0.0047 3.08e-4,-0.0075 z m -0.0039,-0.02344 c -0.0012,-0.0031 -0.0022,-0.0022 -0.0024,0.0024 -1.68e-4,0.0041 7.54e-4,0.0064 0.0021,0.0051 0.0013,-0.0013 0.0014,-0.0047 3.09e-4,-0.0075 z m -0.0039,-0.01953 c -0.0012,-0.0031 -0.0022,-0.0022 -0.0024,0.0024 -1.68e-4,0.0041 7.54e-4,0.0064 0.0021,0.0051 0.0013,-0.0013 0.0014,-0.0047 3.09e-4,-0.0075 z M 40.6404,26.649916 c -0.0012,-0.0031 -0.0022,-0.0022 -0.0024,0.0024 -1.68e-4,0.0041 7.54e-4,0.0064 0.0021,0.0051 0.0013,-0.0013 0.0014,-0.0047 3.09e-4,-0.0075 z m -0.529535,-1.665967 c -0.0046,-0.0079 -0.0057,-0.0054 -0.0019,0.0044 0.0013,0.0035 0.0033,0.0055 0.0043,0.0045 0.001,-0.001 -3.9e-5,-0.005 -0.0023,-0.009 z m -0.07813,-0.195313 c -0.0046,-0.0079 -0.0057,-0.0054 -0.0019,0.0044 0.0013,0.0035 0.0033,0.0055 0.0043,0.0045 0.001,-0.001 -3.9e-5,-0.005 -0.0023,-0.009 z m -0.0078,-0.01953 c -0.0046,-0.0079 -0.0057,-0.0054 -0.0019,0.0044 0.0013,0.0035 0.0033,0.0055 0.0043,0.0045 10e-4,-0.001 -3.9e-5,-0.005 -0.0023,-0.009 z m -0.02734,-0.06641 c -0.0046,-0.0079 -0.0057,-0.0054 -0.0019,0.0044 0.0013,0.0035 0.0033,0.0055 0.0043,0.0045 0.001,-0.001 -3.9e-5,-0.005 -0.0023,-0.009 z m -0.01172,-0.02734 c -0.0046,-0.0079 -0.0057,-0.0054 -0.0019,0.0044 0.0013,0.0035 0.0033,0.0055 0.0043,0.0045 10e-4,-0.001 -3.9e-5,-0.005 -0.0023,-0.009 z m -0.01953,-0.04687 c -0.0046,-0.0079 -0.0057,-0.0054 -0.0019,0.0044 0.0013,0.0035 0.0033,0.0055 0.0043,0.0045 0.001,-10e-4 -3.9e-5,-0.005 -0.0023,-0.009 z m -0.01172,-0.02734 c -0.0046,-0.0079 -0.0057,-0.0054 -0.0019,0.0044 0.0013,0.0035 0.0033,0.0055 0.0043,0.0045 10e-4,-0.001 -3.9e-5,-0.005 -0.0023,-0.009 z m -0.01172,-0.02734 c -0.0046,-0.0079 -0.0057,-0.0054 -0.0019,0.0044 0.0013,0.0035 0.0033,0.0055 0.0043,0.0045 0.001,-0.001 -3.9e-5,-0.005 -0.0023,-0.009 z m -0.01172,-0.02734 c -0.0046,-0.0079 -0.0057,-0.0054 -0.0019,0.0044 0.0013,0.0035 0.0033,0.0055 0.0043,0.0045 10e-4,-10e-4 -3.9e-5,-0.005 -0.0023,-0.009 z m -0.01172,-0.02734 c -0.0046,-0.0079 -0.0057,-0.0054 -0.0019,0.0044 0.0013,0.0035 0.0033,0.0055 0.0043,0.0045 0.001,-0.001 -3.9e-5,-0.005 -0.0023,-0.009 z m -0.02734,-0.0625 c -0.0046,-0.0079 -0.0057,-0.0054 -0.0019,0.0044 0.0013,0.0035 0.0033,0.0055 0.0043,0.0045 10e-4,-0.001 -3.9e-5,-0.005 -0.0023,-0.009 z m -0.01563,-0.03516 c -0.0046,-0.0079 -0.0057,-0.0054 -0.0019,0.0044 0.0013,0.0035 0.0033,0.0055 0.0043,0.0045 10e-4,-10e-4 -3.9e-5,-0.005 -0.0023,-0.009 z m -0.01563,-0.03516 c -0.0046,-0.0079 -0.0057,-0.0054 -0.0019,0.0044 0.0013,0.0035 0.0033,0.0055 0.0043,0.0045 0.001,-0.001 -3.9e-5,-0.005 -0.0023,-0.009 z m -0.01759,-0.03901 c -0.0033,-0.0061 -0.0061,-0.0099 -0.0062,-0.0083 -2.65e-4,0.0046 0.0088,0.02278 0.01055,0.02105 8.93e-4,-8.93e-4 -0.0011,-0.0066 -0.0044,-0.01271 z m -0.01953,-0.04297 c -0.0033,-0.0061 -0.0061,-0.0099 -0.0062,-0.0083 -2.66e-4,0.0046 0.0088,0.02278 0.01055,0.02105 8.94e-4,-8.93e-4 -0.0011,-0.0066 -0.0044,-0.01271 z m -0.02147,-0.04693 c -0.0046,-0.0079 -0.0057,-0.0054 -0.0019,0.0044 0.0013,0.0035 0.0033,0.0055 0.0043,0.0045 10e-4,-0.001 -3.9e-5,-0.005 -0.0023,-0.009 z m -0.0215,-0.04682 c -0.0033,-0.0061 -0.0061,-0.0099 -0.0062,-0.0083 -2.65e-4,0.0046 0.0088,0.02278 0.01055,0.02105 8.93e-4,-8.93e-4 -0.0011,-0.0066 -0.0044,-0.01271 z m -0.02734,-0.05859 c -0.0033,-0.0061 -0.0061,-0.0099 -0.0062,-0.0083 -2.65e-4,0.0046 0.0088,0.02278 0.01055,0.02105 8.93e-4,-8.94e-4 -0.0011,-0.0066 -0.0044,-0.01271 z m -0.03907,-0.08199 c -0.0054,-0.01041 -0.0099,-0.01767 -0.01003,-0.01611 -2.85e-4,0.0044 0.01674,0.0382 0.0184,0.03653 8.17e-4,-8.17e-4 -0.0029,-0.01001 -0.0084,-0.02042 z m -0.06446,-0.132793 c -0.0086,-0.01687 -0.01577,-0.02939 -0.01587,-0.02781 -2.93e-4,0.0043 0.02851,0.06153 0.03014,0.0599 7.77e-4,-7.78e-4 -0.0056,-0.01522 -0.01427,-0.03209 z m -0.05318,-0.106847 c -0.014,-0.02793 -0.02633,-0.05078 -0.0274,-0.05078 -0.0011,0 0.0095,0.02285 0.02349,0.05078 0.014,0.02793 0.02633,0.05078 0.0274,0.05078 0.0011,0 -0.0095,-0.02285 -0.02349,-0.05078 z M 39.47367,23.592054 c -0.0023,-0.0043 -0.0051,-0.0078 -0.0061,-0.0078 -0.0011,0 -7e-5,0.0035 0.0022,0.0078 0.0023,0.0043 0.0051,0.0078 0.0061,0.0078 0.0011,0 7e-5,-0.0035 -0.0022,-0.0078 z m -0.542969,-0.929687 c -0.0023,-0.0043 -0.0051,-0.0078 -0.0061,-0.0078 -0.0011,0 -7.2e-5,0.0035 0.0022,0.0078 0.0023,0.0043 0.0051,0.0078 0.0061,0.0078 0.0011,0 7.1e-5,-0.0035 -0.0022,-0.0078 z"
   id="path888" /><path
   style="fill:#2c6f0e;fill-opacity:1;stroke:#2c6f0e;stroke-width:0.00590551;stroke-opacity:1"
   d="m 32.929648,36.190079 c 0,-0.0033 0.06402,-0.0535 0.142264,-0.111538 0.624613,-0.463298 1.230377,-1.069173 1.702453,-1.702759 0.320152,-0.429686 0.56641,-0.836135 0.809413,-1.335938 0.393754,-0.809864 0.624173,-1.583166 0.756559,-2.539062 0.03183,-0.2298 0.03461,-0.3106 0.03442,-1 -2.22e-4,-0.81527 -0.0091,-0.934192 -0.110734,-1.484375 -0.509854,-2.759866 -2.462594,-5.119311 -5.092187,-6.152759 -0.765402,-0.300808 -1.539222,-0.478024 -2.366405,-0.54194 -0.420014,-0.03246 -1.399473,-0.0088 -1.606251,0.03877 l -0.03516,0.0081 v -2.265923 -2.265923 h 1.444893 1.444893 l 0.277764,0.04742 c 2.105704,0.359479 4.157663,1.289783 5.840664,2.648002 0.499256,0.402911 1.108036,0.980474 1.531552,1.453017 1.193296,1.331433 2.075193,2.834417 2.632391,4.486285 0.287088,0.851101 0.4585,1.605887 0.569664,2.508432 0.09848,0.79954 0.11376,1.878461 0.03814,2.692783 -0.176367,1.899265 -0.77419,3.726843 -1.758829,5.376837 l -0.08748,0.1466 H 36.01366 c -1.696207,0 -3.084013,-0.0027 -3.084013,-0.006 z"
   id="path890" /><path
   style="fill:#2c6f0e;fill-opacity:1;stroke:#2c6f0e;stroke-width:0.0167033;stroke-opacity:1"
   d="m 27.455689,42.282912 c -2.477756,-0.200014 -4.466612,-0.863513 -6.348757,-2.118 -1.573768,-1.048946 -2.94737,-2.486049 -3.896193,-4.076309 -1.204707,-2.01913 -1.79776,-4.193924 -1.797909,-6.593144 -1.52e-4,-2.454919 0.651886,-4.734083 1.941254,-6.785542 0.976081,-1.553002 2.544888,-3.118894 4.0691,-4.06154 3.531571,-2.184092 7.763579,-2.55459 11.554192,-1.01153 1.664143,0.67743 3.074534,1.639861 4.401251,3.003352 1.616245,1.661045 2.726965,3.654455 3.272091,5.872424 0.420026,1.708974 0.461146,3.737304 0.110839,5.467411 -1.061515,5.242641 -5.267709,9.30813 -10.505065,10.15365 -0.904376,0.146003 -2.070845,0.208153 -2.800803,0.149228 z m 1.922446,-4.683413 c 1.719881,-0.24765 3.190238,-0.977771 4.479609,-2.224396 1.233728,-1.192827 2.027169,-2.630372 2.379134,-4.31048 0.09032,-0.431167 0.10184,-0.608566 0.10184,-1.568893 0,-0.957303 -0.01164,-1.137886 -0.1005,-1.558555 -0.150785,-0.713863 -0.374469,-1.354838 -0.713051,-2.04327 -0.973837,-1.980087 -2.707191,-3.483948 -4.812382,-4.175231 -0.725586,-0.238261 -1.396528,-0.356012 -2.199974,-0.386097 -1.407964,-0.05272 -2.65137,0.205672 -3.885549,0.807457 -0.89788,0.437805 -1.518951,0.901685 -2.347847,1.753611 -2.493065,2.562332 -2.984809,6.490628 -1.204702,9.623755 1.007698,1.773627 2.631661,3.106939 4.570392,3.752403 1.229331,0.409282 2.438609,0.516084 3.73303,0.329696 z"
   id="path892" /><path
   style="fill:#2c6f0e;fill-opacity:1;stroke:#2c6f0e;stroke-width:0.0167033;stroke-opacity:1"
   d="m 40.780232,19.216182 c -1.026186,-0.273897 -1.827364,-1.081549 -2.099951,-2.116918 -0.09174,-0.348469 -0.09144,-1.067611 6.03e-4,-1.414213 0.401152,-1.510659 1.912794,-2.441032 3.447271,-2.121697 0.799879,0.16646 1.591066,0.783872 1.957961,1.52792 0.422353,0.85651 0.42347,1.745694 0.0033,2.604612 -0.148284,0.303105 -0.257255,0.448415 -0.564271,0.752441 -0.414909,0.410868 -0.805606,0.639444 -1.314955,0.769313 -0.342166,0.08724 -1.100506,0.08647 -1.429933,-0.0015 z"
   id="path894" /><path
   style="fill:#2c6f0e;fill-opacity:1;stroke:#2c6f0e;stroke-width:0.0167033;stroke-opacity:1"
   d="M 7.016829,49.90239 C 5.6678406,48.399725 4.7411523,46.76509 4.0917694,44.74272 L 3.9001943,44.146099 3.8888816,29.637907 3.877569,15.129715 3.9864632,14.742414 c 1.0383637,-3.693119 3.24901,-6.4972632 6.4831218,-8.2236629 1.592291,-0.84998 3.563832,-1.420103 5.694492,-1.6467128 0.809878,-0.086136 23.22657,-0.086501 24.041631,-3.917e-4 3.796714,0.4011139 6.816405,1.845811 9.115433,4.3610548 2.263449,2.4763166 3.452329,5.4657526 3.655755,9.1923886 0.05835,1.068977 0.05894,21.241548 6.63e-4,22.362251 -0.196381,3.775723 -1.360221,6.75857 -3.600592,9.228084 L 49.068558,50.35538 H 28.246034 7.4235099 L 7.0168466,49.90239 Z m 33.343559,-0.240898 c 1.230634,-0.204005 2.177937,-0.494237 3.137786,-0.961345 0.984981,-0.479336 1.709208,-1.005372 2.475552,-1.798095 1.301348,-1.346142 2.086356,-2.944604 2.454153,-4.997218 0.146204,-0.815959 0.184489,-4.527614 0.152148,-14.751395 C 48.55016,17.711282 48.555057,17.917333 48.3352,16.856196 47.995061,15.214509 47.228496,13.642886 46.164791,12.406394 44.895534,10.930958 42.872367,9.8968925 40.559261,9.5413398 39.749276,9.4168351 35.672123,9.3861546 25.665825,9.4292673 c -8.023052,0.034568 -9.268771,0.048642 -9.63433,0.108849 -2.368452,0.3900807 -4.226935,1.2791877 -5.482287,2.6227507 -1.2692044,1.358389 -2.020375,2.950615 -2.3943825,5.075272 l -0.1003789,0.570232 v 11.711456 c 0,12.391013 -0.00875,11.829378 0.2012382,12.914672 0.2801499,1.447905 0.8550428,2.773289 1.6771309,3.866533 1.4793263,1.967264 3.9199753,3.185471 6.9162713,3.452134 0.09723,0.0087 5.297777,0.01344 11.556777,0.01065 l 11.379999,-0.0051 z"
   id="path896" /><path
   style="fill:#2c6f0e;fill-opacity:1;stroke:#2c6f0e;stroke-width:0.00147638;stroke-opacity:1"
   d="M 12.218698,53.403764 C 11.751906,53.227286 11.365198,53.059053 10.933542,52.844672 10.343111,52.551435 9.8128236,52.240047 9.2851047,51.876699 8.6682767,51.451996 8.0474217,50.941257 7.541734,50.442534 l -0.079308,-0.07822 -0.022772,-0.002 -0.022771,-0.002 -0.2104203,-0.234469 C 7.0907313,49.996983 6.9634283,49.854601 6.9235669,49.809536 6.697008,49.553401 6.4613169,49.265987 6.263767,49.004943 c -0.030892,-0.04082 -0.05784,-0.07642 -0.059885,-0.0791 -0.00297,-0.0039 0.6110607,-0.0049 3.0670724,-0.0049 h 3.0707906 v 2.263672 c 0,1.24502 -0.0013,2.263619 -0.0029,2.263555 -0.0016,-6.2e-5 -0.05566,-0.02005 -0.120118,-0.04442 z"
   id="path898" /><path
   style="fill:#2c6f0e;fill-opacity:1;stroke:#2c6f0e;stroke-width:0.00147638;stroke-opacity:1"
   d="M 3.7892806,43.545231 C 3.7869106,43.538331 3.7637376,43.42846 3.7404686,43.313786 3.5690735,42.469118 3.4612986,41.579664 3.420268,40.671208 3.404171,40.314799 3.400677,40.080519 3.400625,39.353825 l -4.67e-5,-0.643555 h 0.035156 0.035156 l 1.29e-5,0.02637 c 7e-6,0.0145 0.00174,0.166993 0.00384,0.338868 0.027123,2.213061 0.071982,3.08718 0.1938499,3.777343 0.029778,0.168641 0.06518,0.33194 0.1248178,0.575747 0.015971,0.06529 0.029039,0.119346 0.029039,0.120117 0,0.0041 -0.031729,7.21e-4 -0.033172,-0.0035 z"
   id="path900" /><path
   style="fill:#2c6f0e;fill-opacity:1;stroke:#2c6f0e;stroke-width:0.00147638;stroke-opacity:1"
   d="m 3.4003228,36.403723 v -2.419922 h 0.022961 0.022961 l 0.00238,0.407227 c 0.00131,0.223974 0.00333,0.734179 0.00449,1.133789 0.00406,1.402339 0.014078,3.005916 0.020052,3.209961 l 0.0026,0.08887 h -0.037723 -0.037723 z"
   id="path902" /><path
   style="fill:#2c6f0e;fill-opacity:1;stroke:#2c6f0e;stroke-width:0.00147638;stroke-opacity:1"
   d="m 17.655712,54.396293 c -0.42451,-0.0078 -0.812807,-0.02822 -1.288302,-0.06782 -0.07372,-0.0061 -0.06912,-0.0043 -0.06912,-0.02691 v -0.01909 l 0.02246,0.0016 c 0.06747,0.0048 0.82599,0.01801 1.426757,0.02494 1.011745,0.01167 2.138499,0.01923 4.434571,0.02977 l 0.565429,0.0026 v 0.02878 0.02878 L 20.227,54.398094 c -1.38628,-4.67e-4 -2.54336,-0.0013 -2.571289,-0.0018 z"
   id="path904" /><path
   style="fill:#2c6f0e;fill-opacity:1;stroke:#2c6f0e;stroke-width:0.00147638;stroke-opacity:1"
   d="m 17.569774,54.396303 c -0.404637,-0.01019 -0.82319,-0.03329 -1.193359,-0.06584 -0.03545,-0.0031 -0.06753,-0.0057 -0.07129,-0.0057 -0.0065,-4.6e-5 -0.0068,-0.05541 -0.0068,-1.10747 v -1.107422 h 3.224609 3.224609 v 1.144532 1.144531 l -2.569336,-8.18e-4 c -1.413134,-4.49e-4 -2.586914,-0.0013 -2.608398,-0.0018 z"
   id="path906" /><path
   style="fill:#2c6f0e;fill-opacity:1;stroke:#2c6f0e;stroke-width:0.00147638;stroke-opacity:1"
   d="m 23.389389,54.369658 v -0.02987 l 0.07519,0.0025 c 0.04136,0.0014 1.492432,0.0037 3.224609,0.0051 l 3.149414,0.0026 v 0.02478 0.02478 h -3.224609 -3.224609 z"
   id="path908" /><path
   style="fill:#2c6f0e;fill-opacity:1;stroke:#2c6f0e;stroke-width:0.00147638;stroke-opacity:1"
   d="m 23.389389,53.614375 v -0.785156 h 3.224609 3.224609 v 0.785156 0.785156 h -3.224609 -3.224609 z"
   id="path910" /><path
   style="fill:#2c6f0e;fill-opacity:1;stroke:#2c6f0e;stroke-width:0.00147638;stroke-opacity:1"
   d="M 27.782581,53.451919 V 52.5027 h 3.22461 3.224609 v 0.949219 0.949219 h -3.224609 -3.22461 z"
   id="path912" /><path
   style="fill:#2c6f0e;fill-opacity:1;stroke:#2c6f0e;stroke-width:0.00147638;stroke-opacity:1"
   d="m 34.346041,54.371225 v -0.027 l 0.231445,-0.0023 c 0.127295,-0.0013 0.51709,-0.0033 0.866211,-0.0045 2.345287,-0.0079 4.311115,-0.02986 4.718996,-0.05282 0.09573,-0.0054 0.365059,-0.03469 0.557065,-0.06061 0.03904,-0.0053 0.072,-0.0096 0.07324,-0.0096 0.0012,0 0.0023,0.007 0.0023,0.01555 0,0.01292 -0.0015,0.01589 -0.0088,0.01757 -0.02869,0.0066 -0.369219,0.04564 -0.561524,0.06438 -0.398319,0.03881 -0.676148,0.05685 -1.216797,0.07901 -0.07805,0.0032 -0.761243,0.0049 -2.385742,0.0059 l -2.276367,0.0014 z"
   id="path914" /><path
   style="fill:#2c6f0e;fill-opacity:1;stroke:#2c6f0e;stroke-width:0.00147638;stroke-opacity:1"
   d="m 34.346041,53.603307 v -0.799076 h 3.224609 3.22461 v 0.722656 c 0,0.397461 -0.0014,0.722656 -0.003,0.722656 -0.0017,0 -0.04516,0.0053 -0.09668,0.01173 -0.557011,0.06977 -1.183189,0.116791 -1.77727,0.133466 -0.09069,0.0025 -0.969337,0.0047 -2.358399,0.0058 l -2.213867,0.0018 z"
   id="path916" /><path
   style="fill:#2c6f0e;fill-opacity:1;stroke:#2c6f0e;stroke-width:0.00147638;stroke-opacity:1"
   d=""
   id="path918" /><path
   style="fill:#2c6f0e;fill-opacity:1;stroke:#2c6f0e;stroke-width:0.00147638;stroke-opacity:1"
   d="m 40.32605,53.309996 v -0.993464 h 3.016276 c 1.658951,0 3.015543,6.91e-4 3.014648,0.0015 -0.0043,0.004 -0.225547,0.127416 -0.329753,0.183879 -1.493341,0.809152 -3.191813,1.374716 -4.933593,1.642809 -0.08605,0.01324 -0.290265,0.04287 -0.295512,0.04287 -0.0018,0 -0.0033,0.0062 -0.0033,0.01375 0,0.01222 9.76e-4,0.01353 0.0088,0.01183 0.0048,-0.0011 0.03603,-0.0056 0.06934,-0.01002 0.163035,-0.02181 0.442466,-0.06714 0.662109,-0.107413 1.007441,-0.184735 1.997556,-0.467982 2.935547,-0.839785 0.636448,-0.252277 1.248856,-0.545868 1.838656,-0.881458 l 0.102329,-0.05822 0.05142,0.0011 0.05142,0.0011 -0.104924,0.06116 c -0.450737,0.26272 -0.905282,0.494645 -1.381714,0.705001 -1.257231,0.555097 -2.65323,0.945381 -4.084538,1.141926 -0.06338,0.0087 -0.131055,0.01846 -0.150391,0.02168 -0.0422,0.007 -0.18612,0.0245 -0.335937,0.04076 -0.06016,0.0065 -0.114209,0.01245 -0.120117,0.01316 l -0.01074,0.0013 z"
   id="path920" /><path
   style="fill:#2c6f0e;fill-opacity:1;stroke:#2c6f0e;stroke-width:0.00147638;stroke-opacity:1"
   d="m 40.32605,53.310427 v -0.993895 h 3.09375 c 1.701562,0 3.09375,7.25e-4 3.09375,0.0016 0,8.86e-4 -0.03735,0.02352 -0.08301,0.05029 -1.314856,0.771123 -2.777048,1.32856 -4.361942,1.662919 -0.364662,0.07693 -0.768476,0.14735 -1.131222,0.197265 -0.05586,0.0077 -0.125293,0.01738 -0.154297,0.02153 -0.0589,0.0084 -0.244071,0.03059 -0.357422,0.04275 -0.04082,0.0044 -0.07993,0.0087 -0.08691,0.0097 l -0.0127,0.0017 z"
   id="path922" /><path
   style="fill:#2c6f0e;fill-opacity:1;stroke:#2c6f0e;stroke-width:0.00147638;stroke-opacity:1"
   d="m 43.732811,51.895342 v -1.6875 h 2.738503 c 2.654756,0 2.738346,2.19e-4 2.733398,0.0072 -0.0028,0.0039 -0.0341,0.03909 -0.06953,0.07813 -0.06295,0.06933 -0.06479,0.07097 -0.08008,0.07106 -0.01511,9.2e-5 -0.01913,0.0035 -0.115261,0.09629 -0.731826,0.706751 -1.491582,1.291813 -2.367187,1.822892 -0.03545,0.0215 -0.08027,0.04868 -0.09961,0.0604 -0.205063,0.124293 -0.525643,0.298856 -0.822269,0.447744 -0.5336,0.267833 -1.037326,0.482757 -1.609375,0.686667 -0.08442,0.03009 -0.302985,0.104661 -0.306766,0.104661 -10e-4,0 -0.0018,-0.759375 -0.0018,-1.6875 z m 2.769504,0.367116 c 0.708246,-0.418761 1.363118,-0.892937 1.955105,-1.415641 0.151986,-0.134198 0.329919,-0.29954 0.451172,-0.419244 l 0.06445,-0.06363 -0.01793,0.0011 c -0.01775,10e-4 -0.01905,0.0021 -0.134765,0.112726 -0.647955,0.619314 -1.287542,1.115191 -2.068012,1.603347 -0.0828,0.05179 -0.309302,0.188013 -0.357422,0.214963 l -0.02734,0.01531 0.01367,0.0026 c 0.0075,0.0014 0.01836,0.0019 0.02409,0.0011 0.0057,-7.76e-4 0.04937,-0.02444 0.09698,-0.05259 z"
   id="path924" /><path
   style="fill:#2c6f0e;fill-opacity:1;stroke:#2c6f0e;stroke-width:0.00147638;stroke-opacity:1"
   d="m 43.732811,51.895342 v -1.6875 h 2.738503 c 2.665206,0 2.738366,1.93e-4 2.733398,0.0072 -0.0028,0.004 -0.034,0.03914 -0.06933,0.07813 -0.0626,0.06909 -0.06461,0.07089 -0.07964,0.07089 -0.01451,0 -0.01855,0.0031 -0.06859,0.05186 -0.739516,0.72123 -1.513442,1.320474 -2.40635,1.863213 -0.30898,0.187809 -0.594562,0.344977 -0.949555,0.522583 -0.581911,0.291133 -1.131417,0.520473 -1.778857,0.742416 -0.06206,0.02128 -0.114358,0.03868 -0.116211,0.03868 -0.0019,0 -0.0034,-0.744185 -0.0034,-1.6875 z"
   id="path926" /><path
   style="fill:#2c6f0e;fill-opacity:1;stroke:#2c6f0e;stroke-width:0.00147638;stroke-opacity:1"
   d="m 31.049777,53.600364 v -0.800781 h 3.22461 3.224609 v 0.800781 0.800782 h -3.224609 -3.22461 z m 3.292969,0.728516 v -0.01367 h -0.05469 -0.05469 v 0.01367 0.01367 h 0.05469 0.05469 z"
   id="path928" /><path
   style="fill:#2c6f0e;fill-opacity:1;stroke:#2c6f0e;stroke-width:0.00147638;stroke-opacity:1"
   d="m 31.049777,53.600364 v -0.800781 h 3.22461 3.224609 v 0.800781 0.800782 h -3.224609 -3.22461 z"
   id="path930" /><path
   style="fill:#2c6f0e;fill-opacity:1;stroke:#2c6f0e;stroke-width:0.00147638;stroke-opacity:1"
   d="m 23.388923,54.400068 c -0.0014,-0.0014 -0.0026,-0.01347 -0.0026,-0.02675 v -0.02415 l -0.03809,-0.0025 c -0.02095,-0.0014 -0.164209,-0.0025 -0.318359,-0.0025 l -0.280274,-2e-5 v 0.02734 0.02734 h -2.166015 -2.166016 v -0.779297 -0.779297 h 3.22461 3.224609 v 0.78125 0.78125 h -0.73763 c -0.405697,0 -0.738802,-0.0012 -0.740234,-0.0026 z"
   id="path932" /><path
   style="fill:#2c6f0e;fill-opacity:1;stroke:#2c6f0e;stroke-width:0.00147638;stroke-opacity:1"
   d="m 20.904873,54.399743 -2.487305,-9.83e-4 v -0.779294 -0.779294 h 3.22461 3.224609 v 0.78125 0.78125 l -0.737305,-9.73e-4 c -0.405517,-5.35e-4 -1.856591,-0.0014 -3.224609,-0.002 z"
   id="path934" /><path
   style="fill:#2c6f0e;fill-opacity:1;stroke:#2c6f0e;stroke-width:0.00147638;stroke-opacity:1"
   d="m 16.185469,54.282818 c -0.123241,-0.0063 -0.243034,-0.01921 -0.501954,-0.05412 -1.14143,-0.15389 -2.242673,-0.422307 -3.267578,-0.79644 -0.03867,-0.01412 -0.07179,-0.02567 -0.0736,-0.02567 -0.0018,-10e-7 -0.0027,0.0097 -0.002,0.02149 7.36e-4,0.01182 8.37e-4,0.02149 2.25e-4,0.02148 -0.0044,-2.1e-5 -0.267311,-0.100877 -0.381699,-0.146449 -0.571247,-0.227584 -1.128007,-0.493582 -1.658203,-0.792224 -0.140013,-0.07886 -0.3289868,-0.190222 -0.4482423,-0.264138 l -0.051758,-0.03208 v -0.07396 -0.07396 h 3.2246093 3.22461 v 1.109375 1.109375 l -0.02051,-7.39e-4 c -0.01128,-4.06e-4 -0.03105,-0.0013 -0.04394,-0.0019 z"
   id="path936" /><path
   style="fill:#2c6f0e;fill-opacity:1;stroke:#2c6f0e;stroke-width:0.00147638;stroke-opacity:1"
   d="m 16.187422,54.312348 c -1.114947,-0.112709 -2.147425,-0.318465 -3.146485,-0.627045 -0.146028,-0.0451 -0.37969,-0.122218 -0.509765,-0.168237 -0.06982,-0.0247 -0.148926,-0.05247 -0.175782,-0.0617 -0.100012,-0.03439 -0.337457,-0.125888 -0.511718,-0.197194 -0.685285,-0.280411 -1.353338,-0.618658 -1.9794003,-1.002205 l -0.063384,-0.03883 -9.22e-5,-0.07519 -9.23e-5,-0.0752 h 3.2246088 3.22461 v 1.125 1.125 l -0.01465,-5.2e-4 c -0.0081,-2.85e-4 -0.02959,-0.002 -0.04785,-0.0039 z"
   id="path938" /></svg>
